# xmcd
#
# Track frame offsets:
#	150
#	2852
#	4396
#	5158
#
# Disc length: 4689 seconds
#
# Revision: 1
# Processed by: cddbd v1.4PL0 Copyright (c) Steve Scherf et al.
# Submitted via: audiograbber 1.82.02
#
DISCID=28124f04
DTITLE=dsad - sdas
DYEAR=1900
DGENRE=
TTITLE0=Data Track
TTITLE1=Data Track
TTITLE2=Data Track
TTITLE3=Data Track
EXTD=
EXTT0=
EXTT1=
EXTT2=
EXTT3=
PLAYORDER=
